<?xml version="1.0" encoding="UTF-8"?>
<svg version="1.1" xmlns="http://www.w3.org/2000/svg" width="1200" height="1200">
<path d="M0 0 C396 0 792 0 1200 0 C1200 396 1200 792 1200 1200 C804 1200 408 1200 0 1200 C0 804 0 408 0 0 Z " fill="#6E6A6F" transform="translate(0,0)"/>
<path d="M0 0 C2.62946528 1.62060921 5.13683178 3.31080536 7.62109375 5.14453125 C8.28238281 5.6240625 8.94367188 6.10359375 9.625 6.59765625 C15.28055303 11.04392256 20.00409288 16.1599302 21.1328125 23.44921875 C21.61225356 38.55987835 15.40277175 48.23068288 5.71484375 59.328125 C-13.26449818 79.31272868 -46.62048042 97.83534557 -74.27734375 100.5234375 C-77.3803398 100.57481161 -80.31089852 100.61086843 -83.37890625 100.14453125 C-84.03890625 99.48453125 -84.69890625 98.82453125 -85.37890625 98.14453125 C-85.07793826 94.00622136 -84.69992609 91.62606101 -82.37890625 88.14453125 C-80.72890625 88.47453125 -79.07890625 88.80453125 -77.37890625 89.14453125 C-77.37890625 90.13453125 -77.37890625 91.12453125 -77.37890625 92.14453125 C-53.14018728 88.89464714 -29.20055966 77.6836883 -10.37890625 62.14453125 C-9.37150391 61.36335937 -9.37150391 61.36335937 -8.34375 60.56640625 C0.88339519 53.1846901 8.61768394 41.9185007 11.26953125 30.3046875 C11.61423328 24.97822036 10.30676744 21.18598307 6.83203125 17.1484375 C-5.26640303 6.18289548 -20.91277043 0.51204469 -36.37890625 -3.85546875 C-36.18554688 -2.63472656 -35.9921875 -1.41398438 -35.79296875 -0.15625 C-35.66801025 0.63426758 -35.54305176 1.42478516 -35.41430664 2.23925781 C-35.13841507 3.9822492 -34.86154364 5.72508574 -34.58374023 7.46777344 C-33.98549634 11.2333342 -33.39942764 14.9967454 -32.875 18.7734375 C-32.06399917 24.61118222 -30.89444157 30.21698109 -29.31640625 35.89453125 C-26.24733054 47.09836899 -26.25965147 57.60331831 -26.37890625 69.14453125 C-28.85390625 69.63953125 -28.85390625 69.63953125 -31.37890625 70.14453125 C-33.07248505 64.51055911 -34.47467539 58.98127008 -35.25390625 53.14453125 C-36.29114888 45.80472112 -38.21022248 38.76323093 -40.16015625 31.625 C-40.56660089 30.13156338 -40.97285866 28.63807588 -41.37890625 27.14453125 C-41.56437012 26.47317139 -41.74983398 25.80181152 -41.94091797 25.11010742 C-43.26258724 20.13198406 -43.97421678 15.20091554 -44.50390625 10.08203125 C-44.59027344 9.31826172 -44.67664063 8.55449219 -44.765625 7.76757812 C-45.25816415 3.1979093 -45.46434634 -1.26001267 -45.37890625 -5.85546875 C-53.64554375 -5.62325983 -60.32094368 -5.38321832 -67.37890625 -0.85546875 C-67.87648438 -0.31019531 -68.3740625 0.23507812 -68.88671875 0.796875 C-69.37914062 1.24160156 -69.8715625 1.68632813 -70.37890625 2.14453125 C-73.56640625 1.83203125 -73.56640625 1.83203125 -76.37890625 1.14453125 C-77.19140625 -1.04296875 -77.19140625 -1.04296875 -77.37890625 -3.85546875 C-58.34665184 -27.64578677 -21.83414365 -11.98984767 0 0 Z " fill="#D0CDD1" transform="translate(737.37890625,551.85546875)"/>
<path d="M0 0 C2.625 0.375 2.625 0.375 5 1 C5.07516846 1.67240723 5.15033691 2.34481445 5.2277832 3.03759766 C6.68758417 16.0378811 8.19052704 29.02206323 10.08520508 41.96728516 C10.7119847 46.3551629 11.15261901 50.5522459 11 55 C12.98 55 14.96 55 17 55 C17.495 56.98 17.495 56.98 18 59 C16.35 59.66 14.7 60.32 13 61 C13.50254005 67.24207642 14.19320588 73.42280222 15.0625 79.625 C15.82501147 85.43871232 16.23973471 91.19877696 16.3125 97.0625 C16.32998291 97.75230957 16.34746582 98.44211914 16.36547852 99.15283203 C16.35996083 104.19354276 15.18437403 107.56785321 13 112 C11.68 111.67 10.36 111.34 9 111 C8.51990738 108.93771534 8.04096456 106.87516299 7.5625 104.8125 C7.29566406 103.66394531 7.02882812 102.51539063 6.75390625 101.33203125 C6.50511719 100.23246094 6.25632813 99.13289062 6 98 C5.82597656 97.2471875 5.65195313 96.494375 5.47265625 95.71875 C4.91580265 92.5156913 4.78380719 89.41774754 4.68359375 86.16796875 C4.64169922 84.87568359 4.59980469 83.58339844 4.55664062 82.25195312 C4.51683648 80.89713808 4.47712409 79.54232033 4.4375 78.1875 C4.39426277 76.81313895 4.35064688 75.43878976 4.30664062 74.06445312 C4.2007021 70.70973331 4.09862811 67.3549414 4 64 C2.75863281 64.2165625 1.51726562 64.433125 0.23828125 64.65625 C-1.40360867 64.93771684 -3.04553785 65.21895482 -4.6875 65.5 C-5.50412109 65.64308594 -6.32074219 65.78617188 -7.16210938 65.93359375 C-7.95810547 66.06894531 -8.75410156 66.20429687 -9.57421875 66.34375 C-10.66609497 66.53227539 -10.66609497 66.53227539 -11.7800293 66.72460938 C-14.20627832 67.02558913 -16.55759834 67.04505583 -19 67 C-18.93941406 67.7434668 -18.87882812 68.48693359 -18.81640625 69.25292969 C-17.59215181 84.53256677 -16.68209199 99.66976905 -17 115 C-19.3125 114.9375 -19.3125 114.9375 -22 114 C-25.05347624 108.77135079 -25.68290117 103.5850662 -26.1875 97.625 C-26.26790527 96.76100586 -26.34831055 95.89701172 -26.43115234 95.00683594 C-27.14630642 86.66591316 -27.19500638 78.36360695 -27 70 C-27.94875 69.71125 -28.8975 69.4225 -29.875 69.125 C-33 68 -33 68 -35 66 C-34.81511956 63.13435314 -34.20773139 62.18762835 -32.0625 60.25 C-30 59 -30 59 -28 59 C-28.00444122 58.31761765 -28.00888245 57.63523529 -28.01345825 56.93217468 C-28.05763236 49.84355763 -28.08784178 42.75497955 -28.10986328 35.66625977 C-28.11993405 33.0191082 -28.13359136 30.37196779 -28.15087891 27.72485352 C-28.17507972 23.92461395 -28.18647228 20.12452119 -28.1953125 16.32421875 C-28.20563507 15.13664474 -28.21595764 13.94907074 -28.22659302 12.72550964 C-28.22674408 11.62459488 -28.22689514 10.52368011 -28.22705078 9.3894043 C-28.231492 8.41899704 -28.23593323 7.44858978 -28.24050903 6.44877625 C-28 4 -28 4 -26 1 C-24.125 1.3125 -24.125 1.3125 -22 2 C-19.79651464 5.30522804 -19.75436615 6.27660999 -19.77294922 10.11401367 C-19.77317581 11.67529243 -19.77317581 11.67529243 -19.77340698 13.26811218 C-19.78372955 14.39006485 -19.79405212 15.51201752 -19.8046875 16.66796875 C-19.8075174 17.81791824 -19.81034729 18.96786774 -19.81326294 20.15266418 C-19.82447167 23.83104796 -19.84957776 27.50918962 -19.875 31.1875 C-19.88502889 33.67903295 -19.8941549 36.1705697 -19.90234375 38.66210938 C-19.92441327 44.77482241 -19.95789776 50.88739391 -20 57 C-18.39016235 56.75552124 -18.39016235 56.75552124 -16.74780273 56.50610352 C-12.80271541 55.97335868 -9.0410994 55.90229116 -5.0625 55.9375 C-4.03672852 55.94426758 -4.03672852 55.94426758 -2.99023438 55.95117188 C-1.32678396 55.9628044 0.3366205 55.98073306 2 56 C1.52175642 51.66656428 1.042239 47.33327041 0.5625 43 C0.42779297 41.77925781 0.29308594 40.55851563 0.15429688 39.30078125 C0.02216797 38.10839844 -0.10996094 36.91601562 -0.24609375 35.6875 C-0.37508057 34.52105957 -0.50406738 33.35461914 -0.63696289 32.15283203 C-0.92214726 29.67611993 -1.24101409 27.21088462 -1.5859375 24.7421875 C-2.08993678 20.18717511 -2.18394495 15.70390807 -2.1875 11.125 C-2.19974609 10.27164063 -2.21199219 9.41828125 -2.22460938 8.5390625 C-2.22654297 7.724375 -2.22847656 6.9096875 -2.23046875 6.0703125 C-2.23457764 5.33570801 -2.23868652 4.60110352 -2.24291992 3.84423828 C-2 2 -2 2 0 0 Z " fill="#D0CED1" transform="translate(238,524)"/>
<path d="M0 0 C2.36921057 3.55381586 2.30888834 5.69695485 2.4609375 9.84375 C2.78077496 12.18674587 2.78077496 12.18674587 5.0078125 13.24609375 C7 15 7 15 7.46875 18.87890625 C7.49199947 20.4399658 7.50174333 22.00126831 7.5 23.5625 C7.71869627 31.27518861 8.0744895 38.59037828 13.45703125 44.63671875 C19.25351724 49.75817093 24.06093733 50.51031635 31.61328125 50.375 C40.16928734 49.42762216 47.27704246 44.21710849 53 38 C55.13507062 35.10240416 57.17608436 32.17596967 59.140625 29.16015625 C59.75421875 28.44730469 60.3678125 27.73445312 61 27 C62.32 27 63.64 27 65 27 C65.99522149 33.39785242 63.62876421 37.11874672 60.046875 42.35546875 C53.31127046 51.05776699 42.93084121 58.04806407 32 60 C23.71343747 60.69688217 16.38492811 60.18027753 9.51171875 55.1953125 C5.4269718 51.7424961 2.71616858 49.15749091 1 44 C-2.68145986 47.46490339 -5.65003767 51.10262081 -8.5703125 55.23046875 C-10.58838468 57.72824662 -12.31510752 58.89726613 -15.5 59.375 C-18 59 -18 59 -19.625 57.5 C-25.29023285 47.19957663 -25.12370959 37.18146046 -22 26 C-12.47448764 -2.85131146 -12.47448764 -2.85131146 0 0 Z " fill="#D0CED1" transform="translate(802,567)"/>
<path d="M0 0 C1.96484375 0.20703125 1.96484375 0.20703125 4 1 C7.87180987 7.47443726 8.51081217 16.7213853 10 24 C10.65555485 27.00260309 11.32782459 30.00106353 12 33 C19.05957426 32.36144554 25.20263637 28.96483595 31.56445312 26.0625 C32.93053711 25.45535156 32.93053711 25.45535156 34.32421875 24.8359375 C35.15010498 24.46001465 35.97599121 24.0840918 36.8269043 23.69677734 C39 23 39 23 42 24 C40.48465009 28.20930531 37.88091521 29.63225927 34.125 31.875 C33.26902222 32.38836914 33.26902222 32.38836914 32.39575195 32.91210938 C26.75294098 36.24702696 20.91763212 39.18512634 15 42 C16.18956924 48.59670214 17.76744221 55.02968418 19.5 61.5 C26.38912717 87.46825171 26.38912717 87.46825171 22.984375 95.3515625 C22.65953125 95.89554688 22.3346875 96.43953125 22 97 C19.625 96.6875 19.625 96.6875 17 96 C14.60205955 92.40308933 14.64509059 90.41844215 14.3125 86.125 C13.06240526 72.84839141 9.29055179 59.88733693 6 47 C2.35490898 47.56924545 -0.26638105 48.51785479 -3.40625 50.44140625 C-4.22665771 50.93938721 -5.04706543 51.43736816 -5.89233398 51.95043945 C-6.75286377 52.48241943 -7.61339355 53.01439941 -8.5 53.5625 C-9.38695557 54.10028076 -10.27391113 54.63806152 -11.18774414 55.19213867 C-15.16918666 57.61250031 -19.12508688 60.06316489 -23.02734375 62.609375 C-23.90519531 63.17483032 -23.90519531 63.17483032 -24.80078125 63.75170898 C-26.33274981 64.74460925 -27.85242228 65.75640954 -29.37109375 66.76953125 C-32.48278441 68.22596893 -33.80414028 68.15664906 -37 67 C-37.66 66.34 -38.32 65.68 -39 65 C-38.9453125 62.59765625 -38.9453125 62.59765625 -38 60 C-35.8671875 58.18359375 -35.8671875 58.18359375 -32.875 56.4375 C-32.32384521 56.11378418 -31.77269043 55.79006836 -31.20483398 55.45654297 C-25.24714825 52.02078359 -19.14619619 48.83015591 -13.0625 45.625 C-12.06782715 45.10091553 -11.0731543 44.57683105 -10.04833984 44.03686523 C-5.44551041 41.64985267 -1.01620504 39.40895099 4 38 C3.82609741 37.0553186 3.82609741 37.0553186 3.64868164 36.09155273 C3.11853244 33.20712778 2.59050044 30.32231903 2.0625 27.4375 C1.78889648 25.9515332 1.78889648 25.9515332 1.50976562 24.43554688 C0.07388119 16.57734296 -1.2761306 9.00778726 -1 1 C-0.67 0.67 -0.34 0.34 0 0 Z " fill="#CFCDD0" transform="translate(424,524)"/>
<path d="M0 0 C5.83403158 1.87149042 9.70986914 4.85917054 13 10 C13.75 12.875 13.75 12.875 13 16 C9.1609474 21.8626496 4.12139638 25.74366955 -2 29 C-2.68191406 29.3815625 -3.36382812 29.763125 -4.06640625 30.15625 C-6.67117721 31.29287733 -8.31902938 30.74471406 -11 30 C-11.33 28.35 -11.66 26.7 -12 25 C-8.91704731 22.31484766 -5.89278793 20.42024956 -2.25 18.625 C1.50933331 16.67792442 1.50933331 16.67792442 3.0625 12.6875 C3.041875 11.800625 3.02125 10.91375 3 10 C-2.17290251 9.24785891 -2.17290251 9.24785891 -6.7265625 11.27734375 C-14.00788523 19.51083946 -16.58638811 28.26562507 -16.3359375 39.12109375 C-15.78237689 45.5127878 -13.79359196 50.10098948 -9.34375 54.71875 C-4.50646203 58.40820692 0.59385477 58.775164 6.5390625 58.57421875 C11.58677516 57.73673143 15.73446108 55.70916293 20.22265625 53.3125 C23 52 23 52 27 52 C26.82112438 55.84582589 26.31754351 57.63835323 23.75 60.5625 C14.79484482 67.1296138 3.91384819 69.65524455 -7 68 C-14.46932118 65.295796 -19.84503124 58.79916949 -23.375 51.875 C-27.18689028 41.44835893 -26.81551115 26.3821198 -22.265625 16.2890625 C-12.05100839 -2.18552186 -12.05100839 -2.18552186 0 0 Z " fill="#D0CED1" transform="translate(504,563)"/>
<path d="M0 0 C0.33 12.87 0.66 25.74 1 39 C4.268506 29.22476343 4.268506 29.22476343 7.4765625 19.4296875 C7.85554688 18.25664063 8.23453125 17.08359375 8.625 15.875 C9.00914062 14.67617188 9.39328125 13.47734375 9.7890625 12.2421875 C10.91852983 9.2181298 12.23997046 6.69599901 14 4 C18.75 4.75 18.75 4.75 21 7 C21.4230957 8.8125 21.4230957 8.8125 21.67578125 11 C21.8296228 12.20027832 21.8296228 12.20027832 21.98657227 13.42480469 C22.09412842 14.27461914 22.20168457 15.12443359 22.3125 16 C23.77940118 26.02398075 25.44583996 33.61041863 33.75 40.125 C38.7346204 43.32084521 42.1829372 43.65676515 48 43 C48.495 45.475 48.495 45.475 49 48 C46.06818692 50.93181308 44.41168636 51.94510848 40.25 52.5 C33.81978326 52.12389298 28.12729853 49.62268533 23.75 44.875 C19.42477263 39.28473399 16.15702959 32.99194226 15 26 C14.34 26 13.68 26 13 26 C12.91363281 26.57105469 12.82726562 27.14210938 12.73828125 27.73046875 C10.8542588 38.60248819 7.35567173 48.63323938 0 57 C-2.86724686 56.42655063 -3.8614515 56.1385485 -6 54 C-6.33128002 51.44664365 -6.52168846 49.00397622 -6.625 46.4375 C-6.66077148 45.63699219 -6.69654297 44.83648438 -6.73339844 44.01171875 C-7.04354534 35.93017668 -7.16654656 27.84108357 -7.23016357 19.75418091 C-7.24338041 18.25223978 -7.26131964 16.75033273 -7.28399658 15.24850464 C-7.31387084 13.11337898 -7.32365075 10.97906147 -7.328125 8.84375 C-7.3374707 7.59787109 -7.34681641 6.35199219 -7.35644531 5.06835938 C-7 2 -7 2 -5.72949219 0.00976562 C-4 -1 -4 -1 0 0 Z " fill="#D0CED1" transform="translate(355,568)"/>
<path d="M0 0 C2.22317112 3.33475668 2.20901542 4.19065325 2.0546875 8.04296875 C2.01794922 9.53086914 2.01794922 9.53086914 1.98046875 11.04882812 C1.91080243 13.12204631 1.83283432 15.1950041 1.74609375 17.26757812 C1.59722824 24.04971552 2.44981822 28.18744747 6 34 C9.91160319 33.60085682 12.99552972 33.00192684 16.625 31.4375 C19.81551745 30.0785759 21.60500095 29.51500014 25 30 C25.66 30.66 26.32 31.32 27 32 C26.890625 33.9296875 26.890625 33.9296875 26 36 C24.109375 37.6328125 24.109375 37.6328125 21.75 39.125 C20.98171875 39.62257813 20.2134375 40.12015625 19.421875 40.6328125 C14.47220219 43.42698263 9.7207908 45.21718953 4 44 C0.77459284 42.27711171 -2.11657677 40.24266251 -5 38 C-5.48210937 38.63808594 -5.96421875 39.27617188 -6.4609375 39.93359375 C-7.09257812 40.75988281 -7.72421875 41.58617187 -8.375 42.4375 C-9.00148438 43.26121094 -9.62796875 44.08492187 -10.2734375 44.93359375 C-12.46948016 47.56188915 -13.41671898 47.9222292 -16.8125 48.375 C-21.12602715 47.86752622 -22.17252866 46.23826316 -25 43 C-31.98250037 31.32924938 -35.9174902 19.67599886 -36 6 C-35 5 -35 5 -31.9375 4.9375 C-30.4834375 4.9684375 -30.4834375 4.9684375 -29 5 C-28.75765625 5.94359375 -28.5153125 6.8871875 -28.265625 7.859375 C-24.7051933 22.3202882 -24.7051933 22.3202882 -19 36 C-17.68 36 -16.36 36 -15 36 C-9.63888757 25.69417222 -8.84509527 15.20655419 -8.34375 3.73828125 C-8.2303125 2.83464844 -8.116875 1.93101562 -8 1 C-5.21136993 -0.39431504 -3.07921132 -0.25660094 0 0 Z " fill="#D0CED1" transform="translate(311,572)"/>
<path d="M0 0 C1.71875 1.60546875 1.71875 1.60546875 3 3 C1.54643338 6.75504711 1.54643338 6.75504711 -0.8125 7.8125 C-3 8 -3 8 -5.125 7.5625 C-10.67307735 6.47700661 -16.55024747 6.41415977 -22 8 C-22.81854247 14.08270013 -22.81854247 14.08270013 -20.93359375 19.71875 C-16.60991494 23.61981359 -11.21671299 26.27643652 -6.06396484 28.93408203 C-1.52356217 31.36243506 1.06500009 33.8638242 4 38 C4.625 41.5625 4.625 41.5625 4 45 C-0.54044018 51.29802993 -7.84172587 53.70295184 -15.1875 55.25 C-32.01265997 57.89157391 -32.01265997 57.89157391 -36.90625 54.79296875 C-38.34627462 52.43235696 -38.22007531 50.71426213 -38 48 C-37.175 47.97421875 -36.35 47.9484375 -35.5 47.921875 C-28.5243701 47.57932175 -21.9692778 46.76357097 -15.1875 45.125 C-14.48818359 44.96354492 -13.78886719 44.80208984 -13.06835938 44.63574219 C-10.88903656 44.11180126 -10.88903656 44.11180126 -8 43 C-7.67 42.01 -7.34 41.02 -7 40 C-8.71896484 39.03900391 -8.71896484 39.03900391 -10.47265625 38.05859375 C-29.83307372 27.06915463 -29.83307372 27.06915463 -33 19 C-33.265625 16.125 -33.265625 16.125 -33.25 13 C-33.25515625 11.96875 -33.2603125 10.9375 -33.265625 9.875 C-32.99967301 6.99646085 -32.5756823 5.39546295 -31 3 C-21.54999353 -4.30227772 -10.67414582 -5.14646316 0 0 Z " fill="#D0CED1" transform="translate(995,570)"/>
<path d="M0 0 C8.28635623 3.48802077 16.47260231 8.08202885 20.5078125 16.4765625 C21.78128043 22.95002448 19.70605515 27.16252323 16.38671875 32.74609375 C5.21388966 48.98269986 -15.76975368 59.0920356 -34.4921875 63.4765625 C-36.95139926 63.72775052 -39.02457633 63.70610772 -41.4921875 63.4765625 C-42.6171875 58.7265625 -42.6171875 58.7265625 -41.4921875 56.4765625 C-40.5021875 56.4765625 -39.5121875 56.4765625 -38.4921875 56.4765625 C-38.4921875 57.1365625 -38.4921875 57.7965625 -38.4921875 58.4765625 C-19.23627835 54.2771355 -0.24560384 46.00480423 11.5078125 29.4765625 C13.29068337 25.40142907 14.07394198 21.91124344 13.5078125 17.4765625 C9.33494568 9.88953192 0.22750601 6.52255297 -7.6171875 4.1015625 C-9.57437623 3.55577452 -11.53252998 3.01341874 -13.4921875 2.4765625 C-13.27284546 3.54970703 -13.27284546 3.54970703 -13.04907227 4.64453125 C-12.38117049 7.92125048 -11.71789545 11.19889016 -11.0546875 14.4765625 C-10.82458984 15.60191406 -10.59449219 16.72726562 -10.35742188 17.88671875 C-7.31253448 32.97876931 -7.31253448 32.97876931 -7.4296875 40.4765625 C-7.43871094 41.2396875 -7.44773437 42.0028125 -7.45703125 42.7890625 C-7.46863281 43.3459375 -7.48023438 43.9028125 -7.4921875 44.4765625 C-8.8121875 44.4765625 -10.1321875 44.4765625 -11.4921875 44.4765625 C-11.67394531 43.43757812 -11.85570312 42.39859375 -12.04296875 41.328125 C-13.58944608 32.35305921 -13.58944608 32.35305921 -16.0546875 23.6015625 C-18.48124099 16.19418869 -18.77733014 8.19702198 -19.4921875 0.4765625 C-20.93450783 0.58766956 -22.3757548 0.71276866 -23.81640625 0.84375 C-25.02043091 0.94598877 -25.02043091 0.94598877 -26.2487793 1.05029297 C-29.37788382 1.64485348 -31.1154329 3.43934428 -33.4921875 5.4765625 C-35.8046875 5.2265625 -35.8046875 5.2265625 -37.4921875 4.4765625 C-37.4921875 2.2890625 -37.4921875 2.2890625 -36.4921875 -0.5234375 C-26.12923201 -10.30479855 -11.61642401 -4.29029915 0 0 Z " fill="#CECBCF" transform="translate(622.4921875,682.5234375)"/>
<path d="M0 0 C2.875 0.875 2.875 0.875 4.875 2.875 C5.00908821 8.14773937 3.58056307 13.49679319 2.41577148 18.61108398 C0.24599348 28.19631098 -0.63763566 37.44368771 -0.70898438 47.27197266 C-0.78989959 52.29135444 -0.848497 55.781544 -4.125 59.875 C-9.76946297 59.875 -12.82263897 57.20399386 -16.74609375 53.51953125 C-27.05449579 42.06010895 -32.0411181 30.33024066 -32.125 14.875 C-31.125 13.875 -31.125 13.875 -28.75 13.5 C-27.88375 13.62375 -27.0175 13.7475 -26.125 13.875 C-23.25030882 17.80878793 -21.83527347 22.19895289 -20.25 26.75 C-17.11204444 36.25308223 -17.11204444 36.25308223 -10.125 42.875 C-9.47137585 37.15432038 -9.02415156 31.44603169 -8.73046875 25.6953125 C-8.66150391 24.4371875 -8.59253906 23.1790625 -8.52148438 21.8828125 C-8.38093575 19.27149787 -8.25355266 16.65944469 -8.13867188 14.046875 C-8.06583984 12.79648437 -7.99300781 11.54609375 -7.91796875 10.2578125 C-7.8614917 9.12746582 -7.80501465 7.99711914 -7.74682617 6.83251953 C-6.76451987 2.16049027 -4.87929767 -0.19517191 0 0 Z " fill="#D0CED1" transform="translate(903.125,564.125)"/>
<path d="M0 0 C2.0625 0.4375 2.0625 0.4375 4 1 C4.04898438 1.94359375 4.09796875 2.8871875 4.1484375 3.859375 C4.57335647 11.15625938 5.21746315 18.22093935 6.59765625 25.4140625 C6.99808567 27.98769622 7.07039346 30.40013488 7 33 C8.32 33 9.64 33 11 33 C10.67 33.99 10.34 34.98 10 36 C9.34 36 8.68 36 8 36 C8.14133499 37.77119803 8.28823208 39.54195287 8.4375 41.3125 C8.51871094 42.29863281 8.59992187 43.28476562 8.68359375 44.30078125 C8.91812559 47.09375599 8.91812559 47.09375599 10 50 C10.12016328 52.14337765 10.17531664 54.29079124 10.1875 56.4375 C10.20167969 57.57058594 10.21585938 58.70367188 10.23046875 59.87109375 C10.01071135 62.85457979 9.55843386 64.49295423 8 67 C7.34 67 6.68 67 6 67 C4.34766482 61.00160673 3.45484607 55.18819328 2.875 49 C2.78863281 48.12988281 2.70226562 47.25976562 2.61328125 46.36328125 C2.40355393 44.24270501 2.20102158 42.12141921 2 40 C-2.29 40 -6.58 40 -11 40 C-10.835 41.44375 -10.67 42.8875 -10.5 44.375 C-9.73750011 52.569189 -9.91861179 60.7797904 -10 69 C-10.99 68.67 -11.98 68.34 -13 68 C-15.7588286 62.08140577 -15.69123842 55.41022472 -16.12304688 48.9921875 C-16.19458984 48.12335937 -16.26613281 47.25453125 -16.33984375 46.359375 C-16.42286743 45.17553223 -16.42286743 45.17553223 -16.50756836 43.96777344 C-16.8645861 41.6045815 -16.8645861 41.6045815 -20 40 C-19.625 38.0625 -19.625 38.0625 -19 36 C-18.01 35.505 -18.01 35.505 -17 35 C-16.67 24.11 -16.34 13.22 -16 2 C-14.68 2 -13.36 2 -12 2 C-10.53901155 4.9219769 -10.88865099 7.49893475 -10.90234375 10.7578125 C-10.9037587 11.42086395 -10.90517365 12.08391541 -10.90663147 12.76705933 C-10.91223246 14.88641863 -10.924785 17.00567259 -10.9375 19.125 C-10.94251488 20.56119639 -10.94707781 21.99739444 -10.95117188 23.43359375 C-10.96135167 26.95580248 -10.98092662 30.47778321 -11 34 C-4.565 33.505 -4.565 33.505 2 33 C1.7834375 31.69546875 1.566875 30.3909375 1.34375 29.046875 C-1.83608645 9.31262873 -1.83608645 9.31262873 -1 1 C-0.67 0.67 -0.34 0.34 0 0 Z " fill="#CFCDD0" transform="translate(579,670)"/>
<path d="M0 0 C1.9375 0.25 1.9375 0.25 4 1 C4.66 1.99 5.32 2.98 6 4 C8.70699893 3.52229431 11.15985047 2.94056841 13.7421875 1.98046875 C17.30643367 0.90777596 20.28362375 0.69972492 24 0.6875 C25.175625 0.67074219 26.35125 0.65398438 27.5625 0.63671875 C31.31602485 1.03339808 33.75329892 2.12423825 37 4 C37 5.32 37 6.64 37 8 C31.64169211 10.68265611 27.75219546 11.35809048 21.8125 11.0625 C15.58129014 10.6159674 15.58129014 10.6159674 10 13 C7.48940109 16.76589836 7.69802796 19.76590332 7.75 24.125 C7.75314209 24.89183105 7.75628418 25.65866211 7.75952148 26.44873047 C7.81804337 30.4752074 8.06173515 34.2036357 9.0625 38.125 C10.09621933 42.39770656 9.8975573 44.78148068 9 49 C6.03 49.495 6.03 49.495 3 50 C-0.2288531 44.11887471 -2.02815225 38.76813065 -3.25 32.1875 C-3.41693359 31.30529785 -3.58386719 30.4230957 -3.75585938 29.51416016 C-5.67082828 18.90562321 -6.03126106 10.82005172 -1 1 C-0.67 0.67 -0.34 0.34 0 0 Z " fill="#CFCDD0" transform="translate(554,572)"/>
<path d="M0 0 C4.36088522 1.68488747 5.74957614 4.98268819 7.75 9.0625 C11.88102192 18.72180125 16.73261934 30.46055449 15.75 41.0625 C12.75 43.0625 12.75 43.0625 10.8125 43.0625 C6.06757944 40.76193246 4.3393933 35.28437018 2.609375 30.61328125 C1.89664547 28.53712654 1.19376165 26.45756969 0.5 24.375 C0.13648438 23.34955078 -0.22703125 22.32410156 -0.6015625 21.26757812 C-2.88645196 14.4687435 -4.04633265 8.24897857 -3.25 1.0625 C-2.25 0.0625 -2.25 0.0625 0 0 Z " fill="#CFCDD0" transform="translate(927.25,580.9375)"/>
<path d="M0 0 C0.66 0 1.32 0 2 0 C3.44820634 12.51089364 -0.44229829 21.05827476 -6 32 C-6.66 32 -7.32 32 -8 32 C-10.69575139 22.25552162 -8.44364006 13.92236149 -4 5 C-1.953125 2.11328125 -1.953125 2.11328125 0 0 Z " fill="#747075" transform="translate(797,581)"/>
<path d="M0 0 C2.90527388 0.80145486 5.43462786 2.06495008 8.0390625 3.5625 C7.73001843 6.44691135 7.02288385 7.5801954 5.0390625 9.75 C1.18486301 12.07857886 -2.45834991 12.81545436 -6.9609375 12.5625 C-7.9509375 11.9025 -8.9409375 11.2425 -9.9609375 10.5625 C-10.46195527 6.69750574 -10.4856693 4.437053 -8.4609375 1.0625 C-5.43749056 -0.75156817 -3.42898121 -0.61644606 0 0 Z " fill="#D0CED1" transform="translate(927.9609375,542.4375)"/>
</svg>
